<svg xmlns="http://www.w3.org/2000/svg" viewBox="0 0 40.915 25.572"><title>Auto</title><g id="Layer_2" data-name="Layer 2"><g id="Layer_2-2" data-name="Layer 2"><path d="M40.336,13.8,35.222,2.557H35.8V0H17.681a3.852,3.852,0,0,0-1.468.29,3.766,3.766,0,0,0-1.249.829L8.411,7.672H7.672a7.524,7.524,0,0,0-3,.6A7.631,7.631,0,0,0,.6,12.347a7.531,7.531,0,0,0-.6,3v5.114a2.473,2.473,0,0,0,.2,1,2.6,2.6,0,0,0,1.359,1.359,2.466,2.466,0,0,0,1,.2H5.794a5.12,5.12,0,0,0,8.87,0H28.809a5.1,5.1,0,0,0,4.435,2.557A5.085,5.085,0,0,0,37.9,22.555,5.085,5.085,0,0,0,40.915,17.9V16.462A6.374,6.374,0,0,0,40.336,13.8ZM25.572,2.557h6.013a1.314,1.314,0,0,1,.689.2,1.244,1.244,0,0,1,.489.539l1.978,4.375h-9.17Zm-8.79.38a1.229,1.229,0,0,1,.9-.38h5.334V7.672H12.047Zm-4.2,18.52a2.6,2.6,0,0,1-1.359,1.359,2.6,2.6,0,0,1-2,0,2.6,2.6,0,0,1-1.359-1.359,2.6,2.6,0,0,1,0-2A2.6,2.6,0,0,1,9.23,18.1a2.6,2.6,0,0,1,2,0,2.6,2.6,0,0,1,1.359,1.359,2.6,2.6,0,0,1,0,2Zm23.015,0a2.6,2.6,0,0,1-1.359,1.359,2.6,2.6,0,0,1-2,0,2.6,2.6,0,0,1-1.359-1.359,2.6,2.6,0,0,1,0-2A2.6,2.6,0,0,1,32.245,18.1a2.6,2.6,0,0,1,2,0A2.6,2.6,0,0,1,35.6,19.459a2.6,2.6,0,0,1,0,2ZM38.358,17.9a2.8,2.8,0,0,1-.22,1.059,5.352,5.352,0,0,0-.739-1.468,5.256,5.256,0,0,0-1.119-1.149,4.983,4.983,0,0,0-1.418-.739,5.093,5.093,0,0,0-1.618-.26,4.987,4.987,0,0,0-1.988.4,5.153,5.153,0,0,0-2.727,2.727,4.974,4.974,0,0,0-.4,1.988H15.343a4.982,4.982,0,0,0-.4-1.988,5.153,5.153,0,0,0-2.727-2.727,5.145,5.145,0,0,0-3.976,0A5.153,5.153,0,0,0,5.514,18.47a4.974,4.974,0,0,0-.4,1.988H2.557V15.343a4.974,4.974,0,0,1,.4-1.988,5.153,5.153,0,0,1,2.727-2.727,4.987,4.987,0,0,1,1.988-.4H35.9l2.118,4.635a3.968,3.968,0,0,1,.34,1.6Z" fill="#fff"/></g></g></svg>