<svg xmlns="http://www.w3.org/2000/svg" viewBox="0 0 38.358 38.358"><title>Condo</title><g id="Layer_2" data-name="Layer 2"><g id="Layer_2-2" data-name="Layer 2"><path d="M0,38.358V10.229H17.9V38.358ZM2.557,12.786V35.8H7.672V30.687h2.557V35.8h5.114V12.786Zm5.114,2.558V17.9H5.114V15.343Zm0,5.114v2.557H5.114V20.458Zm0,5.114v2.557H5.114V25.572Zm5.114-10.229V17.9H10.229V15.343Zm0,5.114v2.557H10.229V20.458Zm0,5.114v2.557H10.229V25.572ZM20.458,0h17.9V38.358h-17.9ZM35.8,35.8V2.557H23.015V35.8h5.114V30.687h2.557V35.8ZM28.129,5.114V7.671H25.572V5.114Zm0,5.114v2.557H25.572V10.229Zm0,5.115V17.9H25.572V15.343Zm0,5.114v2.557H25.572V20.458Zm0,5.114v2.557H25.572V25.572ZM33.244,5.114V7.671H30.687V5.114Zm0,5.114v2.557H30.687V10.229Zm0,5.115V17.9H30.687V15.343Zm0,5.114v2.557H30.687V20.458Zm0,5.114v2.557H30.687V25.572Z" fill="#fff"/></g></g></svg>