<svg xmlns="http://www.w3.org/2000/svg" viewBox="0 0 48.362 38.884"><title>Home</title><g id="Layer_2" data-name="Layer 2"><g id="Layer_2-2" data-name="Layer 2"><path d="M12.267,21.163a12.488,12.488,0,0,0-.649-1.539l-.889-1.778q-.36-.679-.719-1.479A8.5,8.5,0,0,0,9.16,14.89a4.621,4.621,0,0,0-1.148-1.128,2.8,2.8,0,0,0-1.618-.45,2.941,2.941,0,0,0-.919.15,3.631,3.631,0,0,0-.859.41,3.781,3.781,0,0,0-.729.619,3.338,3.338,0,0,0-.53.759Q2.7,16.568,2.087,17.677a22.418,22.418,0,0,0-1.069,2.218A14.984,14.984,0,0,0,.28,22.182,11.42,11.42,0,0,0,0,24.819a6.217,6.217,0,0,0,.379,2.168,6.415,6.415,0,0,0,1.069,1.868,6.771,6.771,0,0,0,1.618,1.429,5.911,5.911,0,0,0,2.048.809v7.792H7.671V31.092a6.025,6.025,0,0,0,2.038-.809,6.7,6.7,0,0,0,1.628-1.429,6.415,6.415,0,0,0,1.069-1.868,6.217,6.217,0,0,0,.379-2.168,13.8,13.8,0,0,0-.13-2.038A9.3,9.3,0,0,0,12.267,21.163ZM9.929,26.317a3.815,3.815,0,0,1-2.038,2.038,3.894,3.894,0,0,1-3,0,3.812,3.812,0,0,1-2.038-2.038,3.756,3.756,0,0,1-.3-1.5,13.561,13.561,0,0,1,.11-1.678,6.685,6.685,0,0,1,.41-1.638q.079-.2.31-.7t.539-1.119q.31-.619.66-1.3t.7-1.239a9.564,9.564,0,0,1,.639-.919q.289-.36.47-.36t.469.36a8.7,8.7,0,0,1,.629.919q.339.56.7,1.239t.669,1.3q.309.62.539,1.119t.31.7a6.729,6.729,0,0,1,.409,1.638,13.561,13.561,0,0,1,.11,1.678A3.764,3.764,0,0,1,9.929,26.317Z" fill="#fff"/><path d="M30.841,0,13.32,17.521l1.8,1.8,1.658-1.638v21.2H27.005v-17.9h7.672v17.9H44.906v-21.2l1.658,1.638,1.8-1.8Zm6.393,36.32V18.42H24.448v17.9H19.334v-21.2L30.841,3.6,42.349,15.124v21.2Z" fill="#fff"/></g></g></svg>