<svg xmlns="http://www.w3.org/2000/svg" viewBox="0 0 187.652 126.332"><title>Logo Bright Blue</title><g id="Layer_2" data-name="Layer 2"><g id="Layer_2-2" data-name="Layer 2"><path d="M4.847,39.474,17.168,46.6a9.659,9.659,0,0,0,9.694,0l12.321-7.121a9.726,9.726,0,0,0,4.847-8.408V16.824A9.672,9.672,0,0,0,39.2,8.417L26.88,1.3a9.749,9.749,0,0,0-9.712,0L4.847,8.417A9.726,9.726,0,0,0,0,16.824V31.066A9.726,9.726,0,0,0,4.847,39.474ZM24.659,6.143,36.557,13a4.448,4.448,0,0,1,2.2,3.825V21.3h-14.1Zm0,20.446h14.1v4.477a4.448,4.448,0,0,1-2.2,3.825l-11.9,6.857ZM5.27,16.824A4.449,4.449,0,0,1,7.474,13l11.9-6.856V41.748l-11.9-6.857a4.448,4.448,0,0,1-2.2-3.825Z" fill="#1c81f7"/><path d="M14.41,94.012a13.187,13.187,0,0,0,7.607-2.267,11.821,11.821,0,0,0,4.645-6.291H19.2A4.912,4.912,0,0,1,14.52,88.27a6.534,6.534,0,0,1-5.065-2.012,8.748,8.748,0,0,1,0-10.752,6.535,6.535,0,0,1,5.065-2.012A4.913,4.913,0,0,1,19.2,76.31h7.461a11.825,11.825,0,0,0-4.645-6.291,13.19,13.19,0,0,0-7.607-2.267,12.905,12.905,0,0,0-9.344,3.712,13.514,13.514,0,0,0,0,18.835A12.9,12.9,0,0,0,14.41,94.012Z" fill="#1c81f7"/><path d="M39.25,73.165A10.8,10.8,0,0,0,31.643,76a9.782,9.782,0,0,0-3.072,7.552,9.925,9.925,0,0,0,3.091,7.607,10.742,10.742,0,0,0,7.626,2.89,10.55,10.55,0,0,0,7.57-2.89,10.017,10.017,0,0,0,3.036-7.607A9.813,9.813,0,0,0,46.839,76,10.733,10.733,0,0,0,39.25,73.165Zm3.036,14.227a3.976,3.976,0,0,1-3,1.317,4.149,4.149,0,0,1-3.054-1.317A6.265,6.265,0,0,1,36.2,79.8a4.062,4.062,0,0,1,3.017-1.3,4.12,4.12,0,0,1,3.035,1.3,5.173,5.173,0,0,1,1.28,3.785A5.335,5.335,0,0,1,42.286,87.392Z" fill="#1c81f7"/><path d="M59.417,82.71a4.216,4.216,0,0,1,1.042-3.054,4.36,4.36,0,0,1,5.742,0,4.216,4.216,0,0,1,1.042,3.054V93.792h6.217V81.869a8.979,8.979,0,0,0-2.176-6.364A7.406,7.406,0,0,0,65.6,73.165a6.677,6.677,0,0,0-6.181,3.219v-3H53.163V93.792h6.254Z" fill="#1c81f7"/><path d="M88.507,93.792v-5.3H86.276q-1.9,0-1.9-1.426V78.578h4.1V73.385h-4.1V68.41H78.12v4.974h-1.9v5.193h1.9v8.485q0,3.694,1.883,5.212a8.28,8.28,0,0,0,5.322,1.518Z" fill="#1c81f7"/><path d="M101.187,94.048a10.55,10.55,0,0,0,7.57-2.89,10.017,10.017,0,0,0,3.036-7.607A9.813,9.813,0,0,0,108.739,76a11.6,11.6,0,0,0-15.2,0,9.782,9.782,0,0,0-3.072,7.552,9.925,9.925,0,0,0,3.091,7.607A10.742,10.742,0,0,0,101.187,94.048ZM98.1,79.8a4.062,4.062,0,0,1,3.017-1.3,4.12,4.12,0,0,1,3.035,1.3,5.173,5.173,0,0,1,1.28,3.785,5.335,5.335,0,0,1-1.244,3.8,3.976,3.976,0,0,1-3,1.317,4.149,4.149,0,0,1-3.054-1.317A6.265,6.265,0,0,1,98.1,79.8Z" fill="#1c81f7"/><path d="M124.59,88.672a3.027,3.027,0,0,1-1.811.512q-2.378,0-2.633-1.865h-6.4a6.23,6.23,0,0,0,2.707,5.029,10.765,10.765,0,0,0,6.217,1.7,10.121,10.121,0,0,0,6.181-1.811,5.558,5.558,0,0,0,2.45-4.663,4.785,4.785,0,0,0-3-4.608,24.43,24.43,0,0,0-5.522-1.573q-3-.512-3-1.865,0-1.5,2.45-1.5a3.61,3.61,0,0,1,1.865.384,1.8,1.8,0,0,1,.732,1.445h6.4a6.163,6.163,0,0,0-2.56-4.9,10.392,10.392,0,0,0-6.346-1.792,9.761,9.761,0,0,0-6.236,1.829,5.581,5.581,0,0,0-2.3,4.535,4.4,4.4,0,0,0,1.189,3.2,6.455,6.455,0,0,0,2.889,1.719q1.7.493,3.383.823a16.2,16.2,0,0,1,2.871.8q1.188.476,1.188,1.28A1.557,1.557,0,0,1,124.59,88.672Z" fill="#1c81f7"/><path d="M154.645,83.552A9.813,9.813,0,0,0,151.592,76a11.6,11.6,0,0,0-15.2,0,9.782,9.782,0,0,0-3.072,7.552,9.925,9.925,0,0,0,3.091,7.607,10.742,10.742,0,0,0,7.626,2.89,10.55,10.55,0,0,0,7.57-2.89A10.017,10.017,0,0,0,154.645,83.552Zm-7.607,3.84a3.976,3.976,0,0,1-3,1.317,4.149,4.149,0,0,1-3.054-1.317,6.265,6.265,0,0,1-.037-7.589,4.062,4.062,0,0,1,3.017-1.3A4.12,4.12,0,0,1,147,79.8a5.173,5.173,0,0,1,1.28,3.785A5.335,5.335,0,0,1,147.038,87.392Z" fill="#1c81f7"/><rect x="2.743" y="100.402" width="6.254" height="25.674" fill="#1c81f7"/><path d="M26.091,105.448a6.677,6.677,0,0,0-6.181,3.219v-3H13.656v20.408H19.91V114.994a4.216,4.216,0,0,1,1.042-3.054,3.806,3.806,0,0,1,2.871-1.079,3.807,3.807,0,0,1,2.871,1.079,4.216,4.216,0,0,1,1.042,3.054v11.082h6.217V114.153a8.979,8.979,0,0,0-2.176-6.364A7.406,7.406,0,0,0,26.091,105.448Z" fill="#1c81f7"/><path d="M51.667,115.25a24.43,24.43,0,0,0-5.522-1.573q-3-.512-3-1.865,0-1.5,2.45-1.5a3.61,3.61,0,0,1,1.865.384,1.8,1.8,0,0,1,.732,1.445h6.4a6.163,6.163,0,0,0-2.56-4.9,10.392,10.392,0,0,0-6.346-1.792,9.761,9.761,0,0,0-6.236,1.829,5.581,5.581,0,0,0-2.3,4.535,4.4,4.4,0,0,0,1.189,3.2,6.455,6.455,0,0,0,2.889,1.719q1.7.493,3.383.823a16.2,16.2,0,0,1,2.871.8q1.188.476,1.188,1.28a1.557,1.557,0,0,1-.713,1.317,3.027,3.027,0,0,1-1.811.512q-2.378,0-2.633-1.865h-6.4a6.23,6.23,0,0,0,2.707,5.029,10.765,10.765,0,0,0,6.217,1.7,10.121,10.121,0,0,0,6.181-1.811,5.558,5.558,0,0,0,2.45-4.663,4.785,4.785,0,0,0-3-4.608Z" fill="#1c81f7"/><path d="M71.837,116.75a4.217,4.217,0,0,1-1.043,3.054,4.359,4.359,0,0,1-5.742,0,4.216,4.216,0,0,1-1.042-3.054V105.668H57.793v11.922a8.977,8.977,0,0,0,2.176,6.364,7.4,7.4,0,0,0,5.687,2.34,6.677,6.677,0,0,0,6.181-3.218v3h6.254V105.668H71.837Z" fill="#1c81f7"/><path d="M88.854,109.472v-3.8H82.6v20.408h6.254v-9.655a4.827,4.827,0,0,1,1.079-3.584,4.544,4.544,0,0,1,3.237-1.024h1.536v-6.364Q91.048,105.448,88.854,109.472Z" fill="#1c81f7"/><path d="M111.434,108.338a6.927,6.927,0,0,0-5.98-2.89,8.631,8.631,0,0,0-6.6,2.944,11.764,11.764,0,0,0,0,15.013,8.554,8.554,0,0,0,6.51,2.926,7.072,7.072,0,0,0,6.071-3.218v2.962h6.254V105.668h-6.254ZM110.081,119.6a4.349,4.349,0,0,1-6.217.018,4.9,4.9,0,0,1-1.353-3.712,4.966,4.966,0,0,1,1.353-3.73,4.349,4.349,0,0,1,6.217-.018,4.905,4.905,0,0,1,1.353,3.712A4.966,4.966,0,0,1,110.081,119.6Z" fill="#1c81f7"/><path d="M134.632,105.448a6.677,6.677,0,0,0-6.181,3.219v-3H122.2v20.408h6.254V114.994a4.216,4.216,0,0,1,1.042-3.054,4.36,4.36,0,0,1,5.742,0,4.216,4.216,0,0,1,1.042,3.054v11.082H142.5V114.153a8.979,8.979,0,0,0-2.176-6.364A7.406,7.406,0,0,0,134.632,105.448Z" fill="#1c81f7"/><path d="M155.838,110.752a2.973,2.973,0,0,1,2.871,1.829h6.766a8.786,8.786,0,0,0-3.438-5.285,10.637,10.637,0,0,0-6.327-1.847,9.922,9.922,0,0,0-7.333,2.835,11.6,11.6,0,0,0,0,15.2,9.888,9.888,0,0,0,7.333,2.853A10.318,10.318,0,0,0,162,124.394a9.074,9.074,0,0,0,3.474-5.23h-6.766a3.379,3.379,0,0,1-1.17,1.426,3.5,3.5,0,0,1-1.829.4,3.222,3.222,0,0,1-2.834-1.408,7.595,7.595,0,0,1,0-7.424A3.351,3.351,0,0,1,155.838,110.752Z" fill="#1c81f7"/><path d="M187.652,115.945a10.067,10.067,0,0,0-2.963-7.717,10.477,10.477,0,0,0-7.461-2.78,9.958,9.958,0,0,0-7.333,2.816,10.193,10.193,0,0,0-2.834,7.57,10.343,10.343,0,0,0,2.853,7.626,9.867,9.867,0,0,0,7.314,2.871,10.462,10.462,0,0,0,6.254-1.884,8.964,8.964,0,0,0,3.511-4.955h-6.766a6.312,6.312,0,0,1-.713.786,3.15,3.15,0,0,1-.86.476,4.976,4.976,0,0,1-1.774.238,3.564,3.564,0,0,1-3.419-3.072h14.044A12.547,12.547,0,0,0,187.652,115.945ZM173.5,114.007a3.9,3.9,0,0,1,1.28-2.322,3.7,3.7,0,0,1,2.524-.9,3.982,3.982,0,0,1,2.6.9,3.327,3.327,0,0,1,1.244,2.322Z" fill="#1c81f7"/></g></g></svg>