<svg xmlns="http://www.w3.org/2000/svg" viewBox="0 0 375.305 252.664"><title>Logo White</title><g id="Layer_2" data-name="Layer 2"><g id="Layer_2-2" data-name="Layer 2"><path d="M9.695,78.948,34.336,93.19a19.318,19.318,0,0,0,19.389,0L78.367,78.948a19.451,19.451,0,0,0,9.694-16.816V33.649A19.345,19.345,0,0,0,78.4,16.833L53.76,2.591a19.5,19.5,0,0,0-19.424,0L9.695,16.833A19.451,19.451,0,0,0,0,33.649V62.133A19.452,19.452,0,0,0,9.695,78.948ZM49.319,12.286,73.114,26a8.9,8.9,0,0,1,4.407,7.65V42.6h-28.2Zm0,40.893h28.2v8.954a8.9,8.9,0,0,1-4.407,7.65L49.319,83.5ZM10.541,33.649A8.9,8.9,0,0,1,14.947,26l23.8-13.713V83.5l-23.8-13.713a8.9,8.9,0,0,1-4.406-7.65Z" fill="#fff"/><path d="M28.82,188.023a26.374,26.374,0,0,0,15.214-4.535,23.642,23.642,0,0,0,9.29-12.581H38.4a9.825,9.825,0,0,1-9.363,5.632q-6.437,0-10.131-4.023t-3.694-10.752q0-6.728,3.694-10.752t10.131-4.023a9.826,9.826,0,0,1,9.363,5.633H53.324a23.65,23.65,0,0,0-9.29-12.582A26.381,26.381,0,0,0,28.82,135.5a25.811,25.811,0,0,0-18.689,7.425q-7.644,7.425-7.644,18.835T10.131,180.6A25.8,25.8,0,0,0,28.82,188.023Z" fill="#fff"/><path d="M78.5,146.33A21.594,21.594,0,0,0,63.286,152q-6.144,5.668-6.144,15.1t6.181,15.214A21.483,21.483,0,0,0,78.574,188.1a21.1,21.1,0,0,0,15.141-5.779q6.072-5.777,6.072-15.214T93.679,152A21.467,21.467,0,0,0,78.5,146.33Zm6.072,28.454a7.953,7.953,0,0,1-6,2.633,8.3,8.3,0,0,1-6.107-2.633q-2.6-2.633-2.6-7.607t2.523-7.571a8.124,8.124,0,0,1,6.035-2.6,8.24,8.24,0,0,1,6.071,2.6q2.56,2.6,2.561,7.571T84.572,174.784Z" fill="#fff"/><path d="M118.834,165.421a8.432,8.432,0,0,1,2.084-6.107,8.719,8.719,0,0,1,11.485,0,8.432,8.432,0,0,1,2.084,6.107v22.164h12.435V163.739q0-8.045-4.352-12.727A14.812,14.812,0,0,0,131.2,146.33q-8.486,0-12.361,6.438v-6H106.326v40.815h12.508Z" fill="#fff"/><path d="M177.014,187.584V176.978h-4.462q-3.8,0-3.8-2.852v-16.97h8.193V146.769h-8.193v-9.949H156.241v9.949h-3.8v10.386h3.8v16.97q0,7.388,3.767,10.423t10.643,3.035Z" fill="#fff"/><path d="M202.374,188.1a21.1,21.1,0,0,0,15.141-5.779q6.072-5.777,6.072-15.214T217.479,152a23.2,23.2,0,0,0-30.393,0q-6.144,5.668-6.144,15.1t6.181,15.214A21.483,21.483,0,0,0,202.374,188.1Zm-6.181-28.491a8.124,8.124,0,0,1,6.035-2.6,8.24,8.24,0,0,1,6.071,2.6q2.56,2.6,2.561,7.571t-2.487,7.607a7.953,7.953,0,0,1-6,2.633,8.3,8.3,0,0,1-6.107-2.633q-2.6-2.633-2.6-7.607T196.193,159.606Z" fill="#fff"/><path d="M249.18,177.344a6.053,6.053,0,0,1-3.621,1.024q-4.755,0-5.266-3.731h-12.8A12.46,12.46,0,0,0,232.9,184.7a21.531,21.531,0,0,0,12.435,3.4q7.46,0,12.361-3.621a11.116,11.116,0,0,0,4.9-9.326,9.571,9.571,0,0,0-6-9.216,48.861,48.861,0,0,0-11.045-3.146q-6-1.023-6-3.73,0-3,4.9-3a7.22,7.22,0,0,1,3.731.768,3.592,3.592,0,0,1,1.463,2.889h12.8a12.327,12.327,0,0,0-5.12-9.8q-4.828-3.582-12.691-3.584t-12.472,3.658a11.162,11.162,0,0,0-4.608,9.07,8.8,8.8,0,0,0,2.378,6.4,12.91,12.91,0,0,0,5.778,3.438q3.4.987,6.766,1.646a32.405,32.405,0,0,1,5.742,1.609q2.376.952,2.377,2.561A3.114,3.114,0,0,1,249.18,177.344Z" fill="#fff"/><path d="M309.291,167.1q0-9.436-6.107-15.1a23.2,23.2,0,0,0-30.393,0q-6.144,5.668-6.144,15.1t6.181,15.214a21.483,21.483,0,0,0,15.251,5.779,21.1,21.1,0,0,0,15.141-5.779Q309.291,176.54,309.291,167.1Zm-15.214,7.68a7.953,7.953,0,0,1-6,2.633,8.3,8.3,0,0,1-6.107-2.633q-2.6-2.633-2.6-7.607t2.523-7.571a8.124,8.124,0,0,1,6.035-2.6,8.24,8.24,0,0,1,6.071,2.6q2.56,2.6,2.561,7.571T294.076,174.784Z" fill="#fff"/><rect x="5.486" y="200.803" width="12.508" height="51.349" fill="#fff"/><path d="M52.182,210.9q-8.486,0-12.361,6.438v-6H27.313v40.815H39.821V229.988a8.432,8.432,0,0,1,2.084-6.107,7.612,7.612,0,0,1,5.742-2.158,7.614,7.614,0,0,1,5.742,2.158,8.432,8.432,0,0,1,2.084,6.107v22.164H67.909V228.306q0-8.045-4.352-12.727A14.812,14.812,0,0,0,52.182,210.9Z" fill="#fff"/><path d="M103.334,230.5a48.861,48.861,0,0,0-11.045-3.146q-6-1.023-6-3.73,0-3,4.9-3a7.22,7.22,0,0,1,3.731.768,3.592,3.592,0,0,1,1.463,2.889h12.8a12.327,12.327,0,0,0-5.12-9.8Q99.238,210.9,91.375,210.9T78.9,214.555a11.162,11.162,0,0,0-4.608,9.07,8.8,8.8,0,0,0,2.378,6.4,12.91,12.91,0,0,0,5.778,3.438q3.4.987,6.766,1.646a32.405,32.405,0,0,1,5.742,1.609q2.376.952,2.377,2.561a3.114,3.114,0,0,1-1.426,2.633,6.053,6.053,0,0,1-3.621,1.024q-4.755,0-5.266-3.731h-12.8a12.46,12.46,0,0,0,5.413,10.058,21.531,21.531,0,0,0,12.435,3.4q7.46,0,12.361-3.621a11.116,11.116,0,0,0,4.9-9.326,9.571,9.571,0,0,0-6-9.216Z" fill="#fff"/><path d="M143.674,233.5a8.433,8.433,0,0,1-2.085,6.108,8.718,8.718,0,0,1-11.484,0,8.433,8.433,0,0,1-2.084-6.108V211.337H115.586v23.845q0,8.047,4.352,12.728a14.809,14.809,0,0,0,11.374,4.681q8.485,0,12.362-6.437v6h12.508V211.337H143.674Z" fill="#fff"/><path d="M177.709,218.943v-7.607H165.2v40.815h12.508v-19.31q0-5.119,2.158-7.169t6.474-2.048h3.072V210.9Q182.1,210.9,177.709,218.943Z" fill="#fff"/><path d="M222.869,216.676Q218.7,210.9,210.91,210.9a17.261,17.261,0,0,0-13.2,5.889q-5.415,5.889-5.413,15.031t5.413,15a17.108,17.108,0,0,0,13.02,5.852,14.143,14.143,0,0,0,12.142-6.437v5.924h12.507V211.337H222.869ZM220.162,239.2a8.7,8.7,0,0,1-12.435.037q-2.706-2.6-2.706-7.425t2.706-7.461a8.7,8.7,0,0,1,12.435-.037q2.706,2.6,2.707,7.425T220.162,239.2Z" fill="#fff"/><path d="M269.264,210.9q-8.486,0-12.361,6.438v-6H244.395v40.815H256.9V229.988a8.432,8.432,0,0,1,2.084-6.107,8.719,8.719,0,0,1,11.485,0,8.432,8.432,0,0,1,2.084,6.107v22.164h12.435V228.306q0-8.045-4.352-12.727A14.812,14.812,0,0,0,269.264,210.9Z" fill="#fff"/><path d="M311.675,221.5a5.946,5.946,0,0,1,5.741,3.658h13.532a17.571,17.571,0,0,0-6.876-10.57,21.273,21.273,0,0,0-12.655-3.694q-9,0-14.665,5.67t-5.669,15.178q0,9.509,5.669,15.214t14.665,5.706A20.636,20.636,0,0,0,324,248.787a18.148,18.148,0,0,0,6.948-10.46H317.417a6.758,6.758,0,0,1-2.34,2.852,7.006,7.006,0,0,1-3.658.8,6.444,6.444,0,0,1-5.669-2.816,15.189,15.189,0,0,1,0-14.848A6.7,6.7,0,0,1,311.675,221.5Z" fill="#fff"/><path d="M375.3,231.891q0-9.875-5.925-15.434a20.955,20.955,0,0,0-14.922-5.559q-9,0-14.665,5.633t-5.669,15.141q0,9.509,5.706,15.251t14.629,5.742a20.925,20.925,0,0,0,12.508-3.767,17.929,17.929,0,0,0,7.022-9.911H360.456a12.624,12.624,0,0,1-1.426,1.572,6.3,6.3,0,0,1-1.719.951,9.953,9.953,0,0,1-3.548.476,7.127,7.127,0,0,1-6.839-6.144h28.088A25.093,25.093,0,0,0,375.3,231.891ZM347,228.014a7.8,7.8,0,0,1,2.56-4.645,7.4,7.4,0,0,1,5.048-1.792,7.964,7.964,0,0,1,5.193,1.792,6.654,6.654,0,0,1,2.487,4.645Z" fill="#fff"/></g></g></svg>