<svg xmlns="http://www.w3.org/2000/svg" viewBox="0 0 38.238 35.801"><title>Umbrella</title><g id="Layer_2" data-name="Layer 2"><g id="Layer_2-2" data-name="Layer 2"><path d="M19.119,0A19.053,19.053,0,0,1,32.185,5.154a18.634,18.634,0,0,1,4.215,5.7,20.37,20.37,0,0,1,1.818,6.862.218.218,0,0,0,.01.07.224.224,0,0,1,.01.07,1.276,1.276,0,0,1-.09.469,1.259,1.259,0,0,1-.26.41,1.369,1.369,0,0,1-.39.29,1.009,1.009,0,0,1-.459.11,1.7,1.7,0,0,1-.29-.03,2.038,2.038,0,0,1-.29-.07,1.8,1.8,0,0,1-.28-.17,1.526,1.526,0,0,1-.24-.229,6.458,6.458,0,0,0-1.778-1.489,4.6,4.6,0,0,0-2.258-.529,4.993,4.993,0,0,0-2.3.549,5.047,5.047,0,0,0-1.8,1.528,3.54,3.54,0,0,0-.31.49q-.13.25-.27.509a1.531,1.531,0,0,1-.479.549,1.187,1.187,0,0,1-.7.21H24.973a1.186,1.186,0,0,1-.7-.21,1.531,1.531,0,0,1-.479-.549,9.257,9.257,0,0,0-.629-1.019,5.485,5.485,0,0,0-.729-.829,4.115,4.115,0,0,0-.9-.629,5.979,5.979,0,0,0-1.139-.44V30.687a4.829,4.829,0,0,1-.41,1.968,5.284,5.284,0,0,1-2.737,2.737,4.931,4.931,0,0,1-3.936,0,5.284,5.284,0,0,1-2.737-2.737,4.823,4.823,0,0,1-.41-1.968q0-.36-.01-.81a3.077,3.077,0,0,1,.09-.839,1.344,1.344,0,0,1,.37-.649,1.158,1.158,0,0,1,.829-.26,1.158,1.158,0,0,1,.829.26,1.347,1.347,0,0,1,.37.649,3.1,3.1,0,0,1,.09.839q-.01.45-.01.81a2.327,2.327,0,0,0,.21.979A2.74,2.74,0,0,0,14.3,33.034a2.331,2.331,0,0,0,.979.21,2.356,2.356,0,0,0,.969-.21,2.706,2.706,0,0,0,.819-.56,2.739,2.739,0,0,0,.559-.809,2.327,2.327,0,0,0,.21-.979V16.781a5.96,5.96,0,0,0-1.139.44,4.1,4.1,0,0,0-.9.629,5.465,5.465,0,0,0-.729.829,9.257,9.257,0,0,0-.629,1.019,1.531,1.531,0,0,1-.479.549,1.187,1.187,0,0,1-.7.21H12.187a1.186,1.186,0,0,1-.7-.21,1.533,1.533,0,0,1-.479-.549q-.14-.259-.27-.509a3.575,3.575,0,0,0-.31-.49,5.047,5.047,0,0,0-1.8-1.528,4.994,4.994,0,0,0-2.3-.549,4.532,4.532,0,0,0-2.258.529A6.863,6.863,0,0,0,2.3,18.64a1.868,1.868,0,0,1-.449.369,1.14,1.14,0,0,1-.569.13,1.214,1.214,0,0,1-.9-.389A1.261,1.261,0,0,1,0,17.84v-.08a20.117,20.117,0,0,1,1.009-4.794A19.037,19.037,0,0,1,3.087,8.7a19.781,19.781,0,0,1,3-3.576A18.65,18.65,0,0,1,9.849,2.377a19.208,19.208,0,0,1,4.4-1.758A18.965,18.965,0,0,1,19.119,0ZM31.905,14.064a7.589,7.589,0,0,1,1.648.18,7.425,7.425,0,0,1,1.568.54,16.2,16.2,0,0,0-2.288-4.945,16.762,16.762,0,0,0-8.351-6.383,16.484,16.484,0,0,0-10.738,0A16.65,16.65,0,0,0,5.394,9.839a16.322,16.322,0,0,0-2.278,4.945,7.418,7.418,0,0,1,1.568-.54A7.653,7.653,0,0,1,12.726,17.5a7.629,7.629,0,0,1,2.767-2.527,7.686,7.686,0,0,1,7.252,0A7.632,7.632,0,0,1,25.512,17.5a7.627,7.627,0,0,1,2.767-2.527A7.531,7.531,0,0,1,31.905,14.064Z" fill="#fff"/></g></g></svg>