<svg xmlns="http://www.w3.org/2000/svg" viewBox="0 0 259.985 425.716"><title>Whole splash icons</title><g id="Layer_2" data-name="Layer 2"><g id="Layer_2-2" data-name="Layer 2"><path d="M8.157,54.379l16.973,9.81a13.306,13.306,0,0,0,13.355,0l16.973-9.81A13.4,13.4,0,0,0,62.135,42.8V23.177a13.324,13.324,0,0,0-6.653-11.582L38.509,1.785a13.43,13.43,0,0,0-13.379,0L8.157,11.594A13.4,13.4,0,0,0,1.48,23.177V42.8A13.4,13.4,0,0,0,8.157,54.379ZM35.45,8.462l16.39,9.445a6.128,6.128,0,0,1,3.035,5.269v6.167H35.45Zm0,28.166H54.875V42.8a6.127,6.127,0,0,1-3.035,5.269L35.45,57.511ZM8.74,23.177a6.128,6.128,0,0,1,3.035-5.269l16.39-9.445V57.511l-16.39-9.446A6.128,6.128,0,0,1,8.74,42.8Z" fill="#fff"/><path d="M21.331,129.508a18.166,18.166,0,0,0,10.479-3.123,16.284,16.284,0,0,0,6.4-8.666H27.931a6.767,6.767,0,0,1-6.449,3.879,9,9,0,0,1-6.978-2.771,12.051,12.051,0,0,1,0-14.812,9,9,0,0,1,6.978-2.771,6.768,6.768,0,0,1,6.449,3.88H38.209a16.29,16.29,0,0,0-6.4-8.666,18.171,18.171,0,0,0-10.479-3.123A17.778,17.778,0,0,0,8.458,98.447a18.616,18.616,0,0,0,0,25.946A17.773,17.773,0,0,0,21.331,129.508Z" fill="#fff"/><path d="M55.55,100.79a14.874,14.874,0,0,0-10.479,3.905,13.475,13.475,0,0,0-4.232,10.4A13.673,13.673,0,0,0,45.1,125.578a14.8,14.8,0,0,0,10.5,3.981,14.533,14.533,0,0,0,10.429-3.981A13.8,13.8,0,0,0,70.211,115.1,13.518,13.518,0,0,0,66,104.695,14.786,14.786,0,0,0,55.55,100.79Zm4.182,19.6A5.478,5.478,0,0,1,55.6,122.2a5.715,5.715,0,0,1-4.207-1.814,8.63,8.63,0,0,1-.051-10.454,5.6,5.6,0,0,1,4.157-1.789,5.676,5.676,0,0,1,4.181,1.789,7.127,7.127,0,0,1,1.764,5.215A7.349,7.349,0,0,1,59.732,120.388Z" fill="#fff"/><path d="M83.331,113.94a5.808,5.808,0,0,1,1.436-4.207,6.006,6.006,0,0,1,7.91,0,5.808,5.808,0,0,1,1.436,4.207v15.266h8.565V112.781q0-5.541-3-8.766a10.2,10.2,0,0,0-7.834-3.225q-5.845,0-8.514,4.434v-4.131H74.715v28.113h8.616Z" fill="#fff"/><path d="M123.4,129.205V121.9h-3.073q-2.619,0-2.62-1.965V108.246h5.643v-7.154h-5.643V94.24H109.1v6.852h-2.62v7.154h2.62v11.689q0,5.089,2.594,7.179t7.331,2.091Z" fill="#fff"/><path d="M140.872,129.558a14.533,14.533,0,0,0,10.429-3.981,13.8,13.8,0,0,0,4.182-10.479,13.518,13.518,0,0,0-4.207-10.4,15.98,15.98,0,0,0-20.934,0,13.475,13.475,0,0,0-4.232,10.4,13.673,13.673,0,0,0,4.257,10.479A14.8,14.8,0,0,0,140.872,129.558Zm-4.257-19.624a5.6,5.6,0,0,1,4.157-1.789,5.676,5.676,0,0,1,4.181,1.789,7.127,7.127,0,0,1,1.764,5.215A7.349,7.349,0,0,1,145,120.388a5.478,5.478,0,0,1-4.131,1.814,5.715,5.715,0,0,1-4.207-1.814,8.63,8.63,0,0,1-.051-10.454Z" fill="#fff"/><path d="M173.112,122.152a4.169,4.169,0,0,1-2.494.705q-3.275,0-3.627-2.57h-8.817a8.582,8.582,0,0,0,3.728,6.928,14.83,14.83,0,0,0,8.565,2.343,13.942,13.942,0,0,0,8.514-2.494,7.657,7.657,0,0,0,3.376-6.424,6.592,6.592,0,0,0-4.131-6.348,33.655,33.655,0,0,0-7.608-2.167q-4.131-.7-4.131-2.569,0-2.066,3.376-2.066a4.973,4.973,0,0,1,2.57.529,2.474,2.474,0,0,1,1.008,1.99h8.816a8.491,8.491,0,0,0-3.526-6.751,14.316,14.316,0,0,0-8.742-2.469q-5.416,0-8.59,2.52a7.688,7.688,0,0,0-3.174,6.247,6.063,6.063,0,0,0,1.638,4.408,8.892,8.892,0,0,0,3.98,2.368q2.343.68,4.66,1.133a22.32,22.32,0,0,1,3.955,1.108q1.637.656,1.637,1.764A2.145,2.145,0,0,1,173.112,122.152Z" fill="#fff"/><path d="M214.515,115.1a13.518,13.518,0,0,0-4.207-10.4,15.98,15.98,0,0,0-20.934,0,13.475,13.475,0,0,0-4.232,10.4,13.673,13.673,0,0,0,4.257,10.479,14.8,14.8,0,0,0,10.5,3.981,14.533,14.533,0,0,0,10.429-3.981A13.8,13.8,0,0,0,214.515,115.1Zm-10.479,5.29A5.478,5.478,0,0,1,199.9,122.2a5.715,5.715,0,0,1-4.207-1.814,8.63,8.63,0,0,1-.051-10.454,5.6,5.6,0,0,1,4.157-1.789,5.676,5.676,0,0,1,4.181,1.789,7.127,7.127,0,0,1,1.764,5.215A7.349,7.349,0,0,1,204.035,120.388Z" fill="#fff"/><rect x="5.259" y="138.31" width="8.616" height="35.368" fill="#fff"/><path d="M37.422,145.263q-5.845,0-8.514,4.434v-4.131H20.292v28.113h8.616V158.413a5.808,5.808,0,0,1,1.436-4.207A5.243,5.243,0,0,1,34.3,152.72a5.244,5.244,0,0,1,3.955,1.486,5.808,5.808,0,0,1,1.436,4.207v15.266h8.565V157.254q0-5.541-3-8.766A10.2,10.2,0,0,0,37.422,145.263Z" fill="#fff"/><path d="M72.655,158.766a33.655,33.655,0,0,0-7.608-2.167q-4.131-.7-4.131-2.569,0-2.066,3.376-2.066a4.973,4.973,0,0,1,2.57.529,2.474,2.474,0,0,1,1.008,1.99h8.816a8.491,8.491,0,0,0-3.526-6.751,14.316,14.316,0,0,0-8.742-2.469q-5.416,0-8.59,2.52a7.688,7.688,0,0,0-3.174,6.247,6.063,6.063,0,0,0,1.638,4.408,8.892,8.892,0,0,0,3.98,2.368q2.343.68,4.66,1.133a22.32,22.32,0,0,1,3.955,1.108q1.637.656,1.637,1.764a2.145,2.145,0,0,1-.982,1.814,4.169,4.169,0,0,1-2.494.705q-3.275,0-3.627-2.57H52.6a8.582,8.582,0,0,0,3.728,6.928,14.83,14.83,0,0,0,8.565,2.343,13.942,13.942,0,0,0,8.514-2.494,7.657,7.657,0,0,0,3.376-6.424,6.592,6.592,0,0,0-4.131-6.348Z" fill="#fff"/><path d="M100.44,160.831A5.809,5.809,0,0,1,99,165.038a6.005,6.005,0,0,1-7.91,0,5.808,5.808,0,0,1-1.436-4.207V145.566H81.094V161.99q0,5.543,3,8.767a10.2,10.2,0,0,0,7.834,3.224q5.844,0,8.515-4.434v4.131h8.616V145.566H100.44Z" fill="#fff"/><path d="M123.883,150.805v-5.239h-8.616v28.113h8.616v-13.3q0-3.526,1.486-4.938a6.26,6.26,0,0,1,4.459-1.41h2.116v-8.767Q126.906,145.263,123.883,150.805Z" fill="#fff"/><path d="M154.989,149.243a9.543,9.543,0,0,0-8.237-3.981,11.889,11.889,0,0,0-9.094,4.056,16.205,16.205,0,0,0,0,20.682,11.784,11.784,0,0,0,8.968,4.031,9.742,9.742,0,0,0,8.363-4.434v4.081H163.6V145.566h-8.615Zm-1.865,15.517a5.992,5.992,0,0,1-8.565.025,6.756,6.756,0,0,1-1.864-5.114,6.84,6.84,0,0,1,1.864-5.139,5.992,5.992,0,0,1,8.565-.025,6.757,6.757,0,0,1,1.865,5.114A6.841,6.841,0,0,1,153.124,164.761Z" fill="#fff"/><path d="M186.945,145.263q-5.845,0-8.514,4.434v-4.131h-8.616v28.113h8.616V158.413a5.808,5.808,0,0,1,1.436-4.207,6.006,6.006,0,0,1,7.91,0,5.808,5.808,0,0,1,1.436,4.207v15.266h8.565V157.254q0-5.541-3-8.766A10.2,10.2,0,0,0,186.945,145.263Z" fill="#fff"/><path d="M216.157,152.568a4.1,4.1,0,0,1,3.955,2.52h9.321a12.1,12.1,0,0,0-4.736-7.281,14.653,14.653,0,0,0-8.716-2.544,13.669,13.669,0,0,0-10.1,3.905q-3.905,3.9-3.9,10.454t3.9,10.479a13.621,13.621,0,0,0,10.1,3.93,14.214,14.214,0,0,0,8.666-2.67,12.5,12.5,0,0,0,4.786-7.2h-9.321a4.655,4.655,0,0,1-1.612,1.965,4.825,4.825,0,0,1-2.52.554,4.439,4.439,0,0,1-3.9-1.94,10.462,10.462,0,0,1,0-10.227A4.616,4.616,0,0,1,216.157,152.568Z" fill="#fff"/><path d="M259.985,159.723q0-6.8-4.081-10.631a14.433,14.433,0,0,0-10.278-3.829,13.717,13.717,0,0,0-10.1,3.88q-3.905,3.88-3.9,10.429t3.93,10.5a13.592,13.592,0,0,0,10.076,3.955,14.413,14.413,0,0,0,8.616-2.595,12.349,12.349,0,0,0,4.837-6.826h-9.321a8.7,8.7,0,0,1-.982,1.083,4.339,4.339,0,0,1-1.184.655,6.855,6.855,0,0,1-2.444.328,4.909,4.909,0,0,1-4.71-4.232h19.347A17.284,17.284,0,0,0,259.985,159.723Zm-19.5-2.67a5.373,5.373,0,0,1,1.763-3.2,5.1,5.1,0,0,1,3.477-1.234,5.485,5.485,0,0,1,3.577,1.234,4.583,4.583,0,0,1,1.713,3.2Z" fill="#fff"/><path d="M168.865,277.915l-5.114-11.248h.579V264.11H146.21a3.852,3.852,0,0,0-1.468.29,3.766,3.766,0,0,0-1.249.829l-6.553,6.553H136.2a7.524,7.524,0,0,0-3,.6,7.631,7.631,0,0,0-4.076,4.076,7.531,7.531,0,0,0-.6,3v5.114a2.473,2.473,0,0,0,.2,1,2.6,2.6,0,0,0,1.359,1.359,2.466,2.466,0,0,0,1,.2h3.236a5.12,5.12,0,0,0,8.87,0h14.145a5.1,5.1,0,0,0,4.435,2.557,5.085,5.085,0,0,0,4.655-3.017,5.085,5.085,0,0,0,3.017-4.655v-1.438A6.374,6.374,0,0,0,168.865,277.915ZM154.1,266.667h6.013a1.314,1.314,0,0,1,.689.2,1.244,1.244,0,0,1,.489.539l1.978,4.375H154.1Zm-8.79.38a1.229,1.229,0,0,1,.9-.38h5.334v5.114H140.576Zm-4.2,18.52a2.6,2.6,0,0,1-1.359,1.359,2.6,2.6,0,0,1-2,0,2.6,2.6,0,0,1-1.359-1.359,2.6,2.6,0,0,1,0-2,2.6,2.6,0,0,1,1.359-1.359,2.6,2.6,0,0,1,2,0,2.6,2.6,0,0,1,1.359,1.359,2.6,2.6,0,0,1,0,2Zm23.015,0a2.6,2.6,0,0,1-1.359,1.359,2.6,2.6,0,0,1-2,0,2.6,2.6,0,0,1-1.359-1.359,2.6,2.6,0,0,1,0-2,2.6,2.6,0,0,1,1.359-1.359,2.6,2.6,0,0,1,2,0,2.6,2.6,0,0,1,1.359,1.359,2.6,2.6,0,0,1,0,2Zm2.757-3.556a2.8,2.8,0,0,1-.22,1.059,5.352,5.352,0,0,0-.739-1.468,5.256,5.256,0,0,0-1.119-1.149,4.983,4.983,0,0,0-1.418-.739,5.093,5.093,0,0,0-1.618-.26,4.987,4.987,0,0,0-1.988.4,5.153,5.153,0,0,0-2.727,2.727,4.974,4.974,0,0,0-.4,1.988H143.872a4.982,4.982,0,0,0-.4-1.988,5.153,5.153,0,0,0-2.727-2.727,5.145,5.145,0,0,0-3.976,0,5.153,5.153,0,0,0-2.727,2.727,4.974,4.974,0,0,0-.4,1.988h-2.557v-5.114a4.974,4.974,0,0,1,.4-1.988,5.153,5.153,0,0,1,2.727-2.727,4.987,4.987,0,0,1,1.988-.4H164.43l2.118,4.635a3.968,3.968,0,0,1,.34,1.6Z" fill="#fff"/><path d="M4.671,397.88V369.75h17.9V397.88Zm2.557-25.572v23.015h5.114v-5.114H14.9v5.114h5.114V372.307Zm5.114,2.558v2.557H9.785v-2.557Zm0,5.114v2.557H9.785v-2.557Zm0,5.114v2.557H9.785v-2.557Zm5.114-10.229v2.557H14.9v-2.557Zm0,5.114v2.557H14.9v-2.557Zm0,5.114v2.557H14.9v-2.557Zm7.672-25.572h17.9V397.88h-17.9Zm15.343,35.8V362.079H27.686v33.244H32.8v-5.114h2.557v5.114ZM32.8,364.636v2.557H30.243v-2.557Zm0,5.114v2.557H30.243V369.75Zm0,5.115v2.557H30.243v-2.557Zm0,5.114v2.557H30.243v-2.557Zm0,5.114v2.557H30.243v-2.557Zm5.115-20.458v2.557H35.357v-2.557Zm0,5.114v2.557H35.357V369.75Zm0,5.115v2.557H35.357v-2.557Zm0,5.114v2.557H35.357v-2.557Zm0,5.114v2.557H35.357v-2.557Z" fill="#fff"/><path d="M151.647,361.057a19.053,19.053,0,0,1,13.066,5.154,18.634,18.634,0,0,1,4.215,5.7,20.37,20.37,0,0,1,1.818,6.862.218.218,0,0,0,.01.07.224.224,0,0,1,.01.07,1.276,1.276,0,0,1-.09.469,1.259,1.259,0,0,1-.26.41,1.369,1.369,0,0,1-.39.29,1.009,1.009,0,0,1-.459.11,1.7,1.7,0,0,1-.29-.03,2.038,2.038,0,0,1-.29-.07,1.8,1.8,0,0,1-.28-.17,1.526,1.526,0,0,1-.24-.229,6.458,6.458,0,0,0-1.778-1.489,4.6,4.6,0,0,0-2.258-.529,4.993,4.993,0,0,0-2.3.549,5.047,5.047,0,0,0-1.8,1.528,3.54,3.54,0,0,0-.31.49q-.13.25-.27.509a1.531,1.531,0,0,1-.479.549,1.187,1.187,0,0,1-.7.21H157.5a1.186,1.186,0,0,1-.7-.21,1.531,1.531,0,0,1-.479-.549,9.257,9.257,0,0,0-.629-1.019,5.485,5.485,0,0,0-.729-.829,4.115,4.115,0,0,0-.9-.629,5.979,5.979,0,0,0-1.139-.44v13.905a4.829,4.829,0,0,1-.41,1.968,5.284,5.284,0,0,1-2.737,2.737,4.931,4.931,0,0,1-3.936,0,5.284,5.284,0,0,1-2.737-2.737,4.823,4.823,0,0,1-.41-1.968q0-.36-.01-.81a3.077,3.077,0,0,1,.09-.839,1.344,1.344,0,0,1,.37-.649,1.453,1.453,0,0,1,1.658,0,1.347,1.347,0,0,1,.37.649,3.1,3.1,0,0,1,.09.839q-.01.45-.01.81a2.327,2.327,0,0,0,.21.979,2.74,2.74,0,0,0,1.369,1.369,2.331,2.331,0,0,0,.979.21,2.356,2.356,0,0,0,.969-.21,2.706,2.706,0,0,0,.819-.56,2.739,2.739,0,0,0,.559-.809,2.327,2.327,0,0,0,.21-.979V377.838a5.96,5.96,0,0,0-1.139.44,4.1,4.1,0,0,0-.9.629,5.465,5.465,0,0,0-.729.829,9.257,9.257,0,0,0-.629,1.019,1.531,1.531,0,0,1-.479.549,1.187,1.187,0,0,1-.7.21h-1.079a1.186,1.186,0,0,1-.7-.21,1.533,1.533,0,0,1-.479-.549q-.14-.259-.27-.509a3.575,3.575,0,0,0-.31-.49,5.047,5.047,0,0,0-1.8-1.528,4.994,4.994,0,0,0-2.3-.549,4.532,4.532,0,0,0-2.258.529,6.863,6.863,0,0,0-1.778,1.489,1.868,1.868,0,0,1-.449.369,1.14,1.14,0,0,1-.569.13,1.214,1.214,0,0,1-.9-.389,1.261,1.261,0,0,1-.38-.909v-.08a20.117,20.117,0,0,1,1.009-4.794,19.037,19.037,0,0,1,2.078-4.266,19.781,19.781,0,0,1,3-3.576,18.65,18.65,0,0,1,3.766-2.747,19.208,19.208,0,0,1,4.4-1.758A18.965,18.965,0,0,1,151.647,361.057Zm12.786,14.064a7.589,7.589,0,0,1,1.648.18,7.425,7.425,0,0,1,1.568.54,16.2,16.2,0,0,0-2.288-4.945,16.762,16.762,0,0,0-8.351-6.383,16.484,16.484,0,0,0-10.738,0,16.65,16.65,0,0,0-8.351,6.383,16.322,16.322,0,0,0-2.278,4.945,7.418,7.418,0,0,1,1.568-.54,7.653,7.653,0,0,1,8.041,3.256,7.629,7.629,0,0,1,2.767-2.527,7.686,7.686,0,0,1,7.252,0,7.632,7.632,0,0,1,2.767,2.527,7.627,7.627,0,0,1,2.767-2.527A7.531,7.531,0,0,1,164.433,375.121Z" fill="#fff"/><path d="M12.267,273.66a12.488,12.488,0,0,0-.649-1.539l-.889-1.778q-.36-.679-.719-1.479a8.5,8.5,0,0,0-.849-1.479,4.621,4.621,0,0,0-1.148-1.128,2.8,2.8,0,0,0-1.618-.45,2.941,2.941,0,0,0-.919.15,3.631,3.631,0,0,0-.859.41,3.781,3.781,0,0,0-.729.619,3.338,3.338,0,0,0-.53.759q-.659,1.318-1.269,2.427a22.418,22.418,0,0,0-1.069,2.218,14.984,14.984,0,0,0-.739,2.287A11.42,11.42,0,0,0,0,277.316a6.217,6.217,0,0,0,.379,2.168,6.415,6.415,0,0,0,1.069,1.868,6.771,6.771,0,0,0,1.618,1.429,5.911,5.911,0,0,0,2.048.809v7.792H7.671V283.59a6.025,6.025,0,0,0,2.038-.809,6.7,6.7,0,0,0,1.628-1.429,6.415,6.415,0,0,0,1.069-1.868,6.217,6.217,0,0,0,.379-2.168,13.8,13.8,0,0,0-.13-2.038A9.3,9.3,0,0,0,12.267,273.66Zm-2.337,5.154a3.815,3.815,0,0,1-2.038,2.038,3.894,3.894,0,0,1-3,0,3.812,3.812,0,0,1-2.038-2.038,3.756,3.756,0,0,1-.3-1.5,13.561,13.561,0,0,1,.11-1.678A6.685,6.685,0,0,1,3.077,274q.079-.2.31-.7t.539-1.119q.31-.619.66-1.3t.7-1.239a9.564,9.564,0,0,1,.639-.919q.289-.36.47-.36t.469.36a8.7,8.7,0,0,1,.629.919q.339.56.7,1.239t.669,1.3q.309.62.539,1.119t.31.7a6.729,6.729,0,0,1,.409,1.638,13.561,13.561,0,0,1,.11,1.678A3.764,3.764,0,0,1,9.929,278.815Z" fill="#fff"/><path d="M30.841,252.5,13.32,270.018l1.8,1.8,1.658-1.638v21.2H27.005v-17.9h7.672v17.9H44.906v-21.2l1.658,1.638,1.8-1.8Zm6.393,36.32v-17.9H24.448v17.9H19.334v-21.2l11.507-11.527,11.507,11.527v21.2Z" fill="#fff"/><text transform="translate(8.024 309.802)" font-size="14.167" fill="#fff" font-family="DIN1451, DIN 1451" letter-spacing="0.005em">H<tspan x="8.6" y="0" letter-spacing="0.025em">OME</tspan></text><text transform="translate(133.186 308.103)" font-size="14.167" fill="#fff" font-family="DIN1451, DIN 1451" letter-spacing="0em">A<tspan x="8.212" y="0" letter-spacing="0.025em">U</tspan><tspan x="16.785" y="0" letter-spacing="-0.009em">T</tspan><tspan x="23.824" y="0" letter-spacing="0.025em">O</tspan></text><text transform="translate(120.912 422.672)" font-size="14.167" fill="#fff" font-family="DIN1451, DIN 1451" letter-spacing="0.025em">U<tspan x="8.572" y="0" letter-spacing="0.005em">M</tspan><tspan x="18.452" y="0">B</tspan><tspan x="26.858" y="0" letter-spacing="-0.015em">R</tspan><tspan x="34.85" y="0" letter-spacing="0.025em">E</tspan><tspan x="42.772" y="0" letter-spacing="-0.035em">L</tspan><tspan x="49.761" y="0" letter-spacing="-0.015em">L</tspan><tspan x="57.033" y="0">A</tspan></text><path d="M6.8,412.289a3.776,3.776,0,0,1,1.013.125,3.134,3.134,0,0,1,.789.332,2.769,2.769,0,0,1,.591.474,2.881,2.881,0,0,1,.412.557,3.26,3.26,0,0,1,.256.578,3.142,3.142,0,0,1,.128.536H8.723a2.182,2.182,0,0,0-.187-.463,1.741,1.741,0,0,0-.363-.463,1.926,1.926,0,0,0-.571-.356,2.077,2.077,0,0,0-.8-.142,2.211,2.211,0,0,0-.7.1,1.874,1.874,0,0,0-.519.26,1.737,1.737,0,0,0-.367.356,1.885,1.885,0,0,0-.235.4,2.049,2.049,0,0,0-.125.391,1.636,1.636,0,0,0-.038.318v3.147a1.952,1.952,0,0,0,.086.508,1.814,1.814,0,0,0,.308.6,1.862,1.862,0,0,0,.605.5,2.019,2.019,0,0,0,.979.211,2.068,2.068,0,0,0,.8-.142,1.926,1.926,0,0,0,.571-.356,1.733,1.733,0,0,0,.363-.463,2.172,2.172,0,0,0,.187-.463H9.989a3.728,3.728,0,0,1-.135.536,3.244,3.244,0,0,1-.256.578,3.026,3.026,0,0,1-.4.557,2.619,2.619,0,0,1-.584.474,3.151,3.151,0,0,1-.789.332,3.8,3.8,0,0,1-1.02.125,3.736,3.736,0,0,1-1.148-.159,3.047,3.047,0,0,1-.851-.418,2.6,2.6,0,0,1-.595-.584,3.353,3.353,0,0,1-.377-.661,3.016,3.016,0,0,1-.2-.647,3.1,3.1,0,0,1-.055-.533v-3.147a3.108,3.108,0,0,1,.055-.533,3.012,3.012,0,0,1,.2-.646,3.353,3.353,0,0,1,.377-.661,2.615,2.615,0,0,1,.595-.585,3.06,3.06,0,0,1,.851-.418A3.737,3.737,0,0,1,6.8,412.289Z" fill="#fff"/><path d="M11.429,415.429a3.678,3.678,0,0,1,.055-.591,3.2,3.2,0,0,1,.2-.685,3.45,3.45,0,0,1,.377-.685,2.567,2.567,0,0,1,.595-.6,3,3,0,0,1,.851-.422,4.221,4.221,0,0,1,2.293,0,3,3,0,0,1,.854.422,2.571,2.571,0,0,1,.595.6,3.347,3.347,0,0,1,.374.685,3.606,3.606,0,0,1,.256,1.276V418.3a3.457,3.457,0,0,1-.059.595,3.528,3.528,0,0,1-.2.682,3.344,3.344,0,0,1-.374.685,2.573,2.573,0,0,1-.595.6,2.983,2.983,0,0,1-.854.422,4.209,4.209,0,0,1-2.293,0,2.987,2.987,0,0,1-.851-.422,2.568,2.568,0,0,1-.595-.6,3.447,3.447,0,0,1-.377-.685,3.206,3.206,0,0,1-.2-.682,3.644,3.644,0,0,1-.055-.595Zm5.2-.042a2.351,2.351,0,0,0-.086-.581,1.79,1.79,0,0,0-.311-.629,1.851,1.851,0,0,0-.609-.5,2.032,2.032,0,0,0-.972-.208,2.048,2.048,0,0,0-.979.208,1.783,1.783,0,0,0-.913,1.134,2.345,2.345,0,0,0-.086.581v2.954a2.345,2.345,0,0,0,.086.581,1.783,1.783,0,0,0,.913,1.134,2.042,2.042,0,0,0,.979.208,2.026,2.026,0,0,0,.972-.208,1.851,1.851,0,0,0,.609-.5,1.79,1.79,0,0,0,.311-.629,2.351,2.351,0,0,0,.086-.581Z" fill="#fff"/><path d="M26.76,421.365H25.619l-4.3-6.509h-.069v6.509H20v-9.007h1.135l4.31,6.634h.069v-6.634H26.76Z" fill="#fff"/><path d="M32.427,421.371H29.2v-9.014h3.224a4.026,4.026,0,0,1,1.141.146,3.136,3.136,0,0,1,.851.384,2.435,2.435,0,0,1,.595.546,2.967,2.967,0,0,1,.374.633,3.092,3.092,0,0,1,.2.644,3.234,3.234,0,0,1,.059.581v3.147a3.2,3.2,0,0,1-.059.574,3.074,3.074,0,0,1-.2.644,2.944,2.944,0,0,1-.374.633,2.486,2.486,0,0,1-.595.55,3.061,3.061,0,0,1-.854.387A4.035,4.035,0,0,1,32.427,421.371Zm-1.979-7.837V420.2h2.02a2.317,2.317,0,0,0,.965-.173,1.636,1.636,0,0,0,.591-.432,1.459,1.459,0,0,0,.294-.561,2.166,2.166,0,0,0,.08-.55v-3.23a2.189,2.189,0,0,0-.08-.557,1.41,1.41,0,0,0-.3-.557,1.694,1.694,0,0,0-.595-.429,2.325,2.325,0,0,0-.965-.173Z" fill="#fff"/><path d="M37.45,415.429a3.678,3.678,0,0,1,.055-.591,3.2,3.2,0,0,1,.2-.685,3.45,3.45,0,0,1,.377-.685,2.567,2.567,0,0,1,.595-.6,3,3,0,0,1,.851-.422,4.221,4.221,0,0,1,2.293,0,3,3,0,0,1,.854.422,2.571,2.571,0,0,1,.595.6,3.347,3.347,0,0,1,.374.685,3.606,3.606,0,0,1,.256,1.276V418.3a3.457,3.457,0,0,1-.059.595,3.528,3.528,0,0,1-.2.682,3.344,3.344,0,0,1-.374.685,2.573,2.573,0,0,1-.595.6,2.983,2.983,0,0,1-.854.422,4.209,4.209,0,0,1-2.293,0,2.987,2.987,0,0,1-.851-.422,2.568,2.568,0,0,1-.595-.6,3.447,3.447,0,0,1-.377-.685,3.206,3.206,0,0,1-.2-.682,3.644,3.644,0,0,1-.055-.595Zm5.2-.042a2.351,2.351,0,0,0-.086-.581,1.79,1.79,0,0,0-.311-.629,1.851,1.851,0,0,0-.609-.5,2.4,2.4,0,0,0-1.951,0,1.783,1.783,0,0,0-.913,1.134,2.345,2.345,0,0,0-.086.581v2.954a2.345,2.345,0,0,0,.086.581,1.783,1.783,0,0,0,.913,1.134,2.4,2.4,0,0,0,1.951,0,1.851,1.851,0,0,0,.609-.5,1.79,1.79,0,0,0,.311-.629,2.351,2.351,0,0,0,.086-.581Z" fill="#fff"/></g></g></svg>