<svg id="Layer_1" data-name="Layer 1" xmlns="http://www.w3.org/2000/svg" viewBox="0 0 99.99 98.95"><defs><style>.cls-1{fill:#FFFFFF;}</style></defs><title>Contoso-Insurance-Info-Icon</title><path class="cls-1" d="M50,98.95A50.07,50.07,0,0,1,14.62,84.49,49.25,49.25,0,0,1,1.78,62.64a49.84,49.84,0,0,1,0-26.33,49.52,49.52,0,0,1,23-29.58,50.61,50.61,0,0,1,50.52,0,49.39,49.39,0,0,1,23,29.58,49.84,49.84,0,0,1,0,26.33,49.52,49.52,0,0,1-23,29.58A50.2,50.2,0,0,1,50,98.95ZM50,6.6A42.56,42.56,0,0,0,38.52,8.14a44.52,44.52,0,0,0-10.36,4.33A43.1,43.1,0,0,0,12.61,27.85,43.68,43.68,0,0,0,8.24,38.08a42.2,42.2,0,0,0,0,22.75,43.56,43.56,0,0,0,4.37,10.26A43.1,43.1,0,0,0,28.16,86.47,44.52,44.52,0,0,0,38.52,90.8a43.52,43.52,0,0,0,23,0,44.64,44.64,0,0,0,10.34-4.33A43.1,43.1,0,0,0,87.4,71.09a43.56,43.56,0,0,0,4.37-10.26,42.11,42.11,0,0,0,0-22.73A43.56,43.56,0,0,0,87.4,27.85,43.1,43.1,0,0,0,71.85,12.47,44.64,44.64,0,0,0,61.51,8.14,42.48,42.48,0,0,0,50,6.6Zm3.33,71H46.67v-38h6.67Zm0-44.58H46.67v-6.6h6.67Z" transform="translate(-0.01 0)"/></svg>