<svg id="Layer_1" data-name="Layer 1" xmlns="http://www.w3.org/2000/svg" viewBox="0 0 500 500"><defs><style>.cls-1{fill:#374f73;}</style></defs><title>Contoso-Insurance-Misc-Icons</title><path class="cls-1" d="M11.16,1H489.53a10,10,0,0,1,10,10V348.82a10,10,0,0,1-10,10H354.22a10,10,0,0,0-7,2.9l-90.27,89.83a10,10,0,0,1-14.09,0l-89.56-89.78a10,10,0,0,0-7.06-2.93h-135a10,10,0,0,1-10-10V11A10,10,0,0,1,11.16,1ZM471.62,318.91V39.47A10.12,10.12,0,0,0,461.5,29.35H39.19A10.12,10.12,0,0,0,29.07,39.47V318.91A10.12,10.12,0,0,0,39.19,329H158a10.12,10.12,0,0,1,7.18,3l77.8,78.24a10.12,10.12,0,0,0,14.32,0L335.79,332a10.12,10.12,0,0,1,7.15-3H461.5A10.12,10.12,0,0,0,471.62,318.91Z"/><path class="cls-1" d="M397.49,100.51v11.16a9.93,9.93,0,0,1-9.93,9.93H106.78a9.93,9.93,0,0,1-9.93-9.93V100.51a9.93,9.93,0,0,1,9.93-9.93H387.56A9.93,9.93,0,0,1,397.49,100.51Zm-87.58,95.27H106.78a9.93,9.93,0,0,1-9.93-9.93V174.69a9.93,9.93,0,0,1,9.93-9.93H309.92a9.93,9.93,0,0,1,9.93,9.93v11.15A9.93,9.93,0,0,1,309.92,195.78ZM360.74,270h-254A9.93,9.93,0,0,1,96.85,260V248.88a9.93,9.93,0,0,1,9.93-9.93h254a9.93,9.93,0,0,1,9.93,9.93V260A9.93,9.93,0,0,1,360.74,270Z"/></svg>