<svg id="Layer_1" data-name="Layer 1" xmlns="http://www.w3.org/2000/svg" viewBox="0 0 25 25"><defs><style>.cls-1{fill:#374f73;}</style></defs><title>Money Icon</title><path class="cls-1" d="M10.47,9.65a1,1,0,0,0,.26.71,2.06,2.06,0,0,0,.82.46L12,11V8.43a2.17,2.17,0,0,0-1.16.43A1,1,0,0,0,10.47,9.65Z"/><path class="cls-1" d="M13.88,13.23,13.37,13v2.8a2.2,2.2,0,0,0,1.26-.43,1.08,1.08,0,0,0,.4-.83Q15,13.66,13.88,13.23Z"/><path class="cls-1" d="M12.5,0A12.5,12.5,0,1,0,25,12.5,12.5,12.5,0,0,0,12.5,0Zm3.73,16.58a4.79,4.79,0,0,1-2.86,1V19H12V17.55a5,5,0,0,1-2.7-1,3,3,0,0,1-1.1-2.43h1.87a1.41,1.41,0,0,0,.5,1.17,2.79,2.79,0,0,0,1.44.51V12.7l-.8-.27a6.18,6.18,0,0,1-2.08-1.08,2.2,2.2,0,0,1-.74-1.77,2.36,2.36,0,0,1,.92-1.9A4.7,4.7,0,0,1,12,6.8V5.58h1.34V6.82a3.84,3.84,0,0,1,2.37,1,3.72,3.72,0,0,1,1,2.08H14.9A1.52,1.52,0,0,0,14.43,9a2.15,2.15,0,0,0-1.06-.52v2.91l1.41.5a4.39,4.39,0,0,1,1.79,1,2.35,2.35,0,0,1,.59,1.67A2.56,2.56,0,0,1,16.23,16.58Z"/></svg>