<svg id="Layer_1" data-name="Layer 1" xmlns="http://www.w3.org/2000/svg" viewBox="0 0 500 500"><defs><style>.cls-1{fill:#ececec;}.cls-2{fill:#374f73;}</style></defs><title>Contoso-Insurance-Misc-Icons</title><rect class="cls-1" x="0.29" y="0.79" width="499" height="499"/><path class="cls-2" d="M312.59,307.92a175.37,175.37,0,0,1,50.23,26.9,177.79,177.79,0,0,1,38.05,40,182.48,182.48,0,0,1,24,49.72c5.59,18,8.39,46.26,8.39,75.26H407.11c0-31-4-62.13-12-81.3a150.61,150.61,0,0,0-82.86-82.86q-28.75-12-62.3-12a159.12,159.12,0,0,0-79.89,21.17A153.46,153.46,0,0,0,114,400.9a157.84,157.84,0,0,0-15.65,37.75c-3.68,13.5-5.52,37.15-5.52,61.15H66.67c0-33,2.86-57.43,8.59-75.36A182.35,182.35,0,0,1,99.61,375a179.77,179.77,0,0,1,38.16-39.69,185.69,185.69,0,0,1,50-27.21,128.64,128.64,0,0,1-28.64-20.87,129.93,129.93,0,0,1-21.58-27.31,134,134,0,0,1-13.71-32.12,131.64,131.64,0,0,1,5.42-86.13A130.92,130.92,0,0,1,198.94,72,132.47,132.47,0,0,1,301,72a130.92,130.92,0,0,1,69.66,69.66,131.34,131.34,0,0,1,5.42,86,132.63,132.63,0,0,1-13.71,31.92,135.29,135.29,0,0,1-21.48,27.31A126.59,126.59,0,0,1,312.59,307.92ZM145.23,192.73a100.84,100.84,0,0,0,8.29,40.71,106.1,106.1,0,0,0,55.75,55.75,104.17,104.17,0,0,0,81.43,0,106.1,106.1,0,0,0,55.75-55.75,104.16,104.16,0,0,0,0-81.43A106.11,106.11,0,0,0,290.7,96.27a104.17,104.17,0,0,0-81.43,0A106.11,106.11,0,0,0,153.52,152,100.86,100.86,0,0,0,145.23,192.73Z"/><path class="cls-2" d="M336.26,307a142.86,142.86,0,0,0,57-114.2c0-78.85-64.15-143-143-143s-143,64.15-143,143a142.86,142.86,0,0,0,57,114.2C105,338.08,64.39,400.28,64.39,471.79a186.61,186.61,0,0,0,2.08,27.86c27.82.14,40.82.14,53.74.35a133.12,133.12,0,0,1-3-28.21c0-73.39,59.71-133.09,133.09-133.09s133.09,59.71,133.09,133.09a134.72,134.72,0,0,1-3.09,28c27.84.16,21,0,53.76.27a186.57,186.57,0,0,0,2.15-28.27C436.2,400.28,395.61,338.08,336.26,307Zm-86-21.2a93,93,0,1,1,93-93A93.11,93.11,0,0,1,250.29,285.79Z"/></svg>