<?xml version="1.0" encoding="UTF-8" standalone="no"?>
<!-- Generator: Adobe Illustrator 21.0.2, SVG Export Plug-In . SVG Version: 6.00 Build 0)  -->

<svg
   xmlns:dc="http://purl.org/dc/elements/1.1/"
   xmlns:cc="http://creativecommons.org/ns#"
   xmlns:rdf="http://www.w3.org/1999/02/22-rdf-syntax-ns#"
   xmlns:svg="http://www.w3.org/2000/svg"
   xmlns="http://www.w3.org/2000/svg"
   xmlns:sodipodi="http://sodipodi.sourceforge.net/DTD/sodipodi-0.dtd"
   xmlns:inkscape="http://www.inkscape.org/namespaces/inkscape"
   version="1.1"
   id="Layer_1"
   x="0px"
   y="0px"
   width="750px"
   height="750px"
   viewBox="0 0 750 750"
   style="enable-background:new 0 0 750 750;"
   xml:space="preserve"
   inkscape:version="0.91 r13725"
   sodipodi:docname="000_Contoso-Insurance-Badge-01 -1.svg"><metadata
   id="metadata13"><rdf:RDF><cc:Work
       rdf:about=""><dc:format>image/svg+xml</dc:format><dc:type
         rdf:resource="http://purl.org/dc/dcmitype/StillImage" /><dc:title></dc:title></cc:Work></rdf:RDF></metadata><defs
   id="defs11" /><sodipodi:namedview
   pagecolor="#ffffff"
   bordercolor="#666666"
   borderopacity="1"
   objecttolerance="10"
   gridtolerance="10"
   guidetolerance="10"
   inkscape:pageopacity="0"
   inkscape:pageshadow="2"
   inkscape:window-width="1858"
   inkscape:window-height="1057"
   id="namedview9"
   showgrid="false"
   inkscape:zoom="0.31466667"
   inkscape:cx="375"
   inkscape:cy="371.82203"
   inkscape:window-x="-8"
   inkscape:window-y="-8"
   inkscape:window-maximized="1"
   inkscape:current-layer="Layer_1" />
<style
   type="text/css"
   id="style3">
	.st0{fill:#374F73;}
</style>
<g
   id="g5"
   transform="matrix(2.63538,0,0,2.63538,-613.26808,-613.30839)">
	<path
   class="st0"
   d="m 472.5,286.9 -69.9,-40.4 c -17,-9.8 -38.1,-9.8 -55.1,0 l -69.9,40.4 c -17,9.8 -27.5,28.1 -27.5,47.7 l 0,80.8 c 0,19.6 10.5,37.9 27.5,47.7 l 69.9,40.4 c 8.5,4.9 18,7.4 27.5,7.4 9.5,0 19,-2.5 27.5,-7.4 l 69.9,-40.4 c 17,-9.8 27.5,-28.1 27.5,-47.7 l 0,-80.8 C 500,315 489.5,296.7 472.5,286.9 Z m -15,26 c 7.7,4.5 12.5,12.8 12.5,21.7 l 0,25.4 -80,0 0,-86 67.5,38.9 z m -165,124.2 C 284.8,432.6 280,424.3 280,415.4 l 0,-80.8 c 0,-8.9 4.8,-17.2 12.5,-21.7 L 360,274 l 0,202 -67.5,-38.9 z m 165,0 -67.5,38.9 0,-86 80,0 0,25.4 c 0,8.9 -4.8,17.2 -12.5,21.7 z"
   id="path7"
   inkscape:connector-curvature="0"
   style="fill:#374F73" />
</g>
</svg>