<?xml version="1.0" encoding="UTF-8" standalone="no"?>
<svg
   xmlns:dc="http://purl.org/dc/elements/1.1/"
   xmlns:cc="http://creativecommons.org/ns#"
   xmlns:rdf="http://www.w3.org/1999/02/22-rdf-syntax-ns#"
   xmlns:svg="http://www.w3.org/2000/svg"
   xmlns="http://www.w3.org/2000/svg"
   xmlns:sodipodi="http://sodipodi.sourceforge.net/DTD/sodipodi-0.dtd"
   xmlns:inkscape="http://www.inkscape.org/namespaces/inkscape"
   version="1.0"
   width="72.000000pt"
   height="72.000000pt"
   viewBox="0 0 72.000000 72.000000"
   preserveAspectRatio="xMidYMid meet"
   id="svg2"
   inkscape:version="0.91 r13725"
   sodipodi:docname="note-icon.svg">
  <defs
     id="defs18" />
  <sodipodi:namedview
     pagecolor="#ffffff"
     bordercolor="#666666"
     borderopacity="1"
     objecttolerance="10"
     gridtolerance="10"
     guidetolerance="10"
     inkscape:pageopacity="0"
     inkscape:pageshadow="2"
     inkscape:window-width="1858"
     inkscape:window-height="1057"
     id="namedview16"
     showgrid="false"
     inkscape:zoom="2.6222222"
     inkscape:cx="45"
     inkscape:cy="44.618644"
     inkscape:window-x="-8"
     inkscape:window-y="-8"
     inkscape:window-maximized="1"
     inkscape:current-layer="svg2" />
  <metadata
     id="metadata4">
Created by potrace 1.10, written by Peter Selinger 2001-2011
<rdf:RDF>
  <cc:Work
     rdf:about="">
    <dc:format>image/svg+xml</dc:format>
    <dc:type
       rdf:resource="http://purl.org/dc/dcmitype/StillImage" />
  </cc:Work>
</rdf:RDF>
</metadata>
  <g
     transform="matrix(0.121,0,0,-0.121,-7.2538622,79.535703)"
     id="g6"
     style="fill:#374f73;stroke:none">
    <path
       d="M 123,626 C 72,603 68,587 72,391 c 3,-177 3,-179 28,-200 17,-14 39,-20 70,-21 38,0 56,-8 108,-45 34,-25 67,-45 74,-45 7,0 25,10 38,23 60,53 89,67 137,67 37,0 53,6 71,24 21,23 22,31 22,208 l 0,185 -26,24 c -25,24 -29,24 -232,26 -161,2 -214,0 -239,-11 z m 441,-42 c 14,-5 16,-30 16,-172 0,-191 -4,-202 -75,-202 -33,0 -52,-8 -88,-35 -25,-19 -55,-35 -67,-35 -19,0 -77,34 -91,54 -4,4 -28,11 -55,14 -93,10 -94,11 -94,192 0,131 3,161 16,174 13,14 47,16 219,16 112,0 210,-3 219,-6 z"
       id="path8"
       inkscape:connector-curvature="0" />
    <path
       d="m 180,515 c 0,-13 26,-15 175,-15 149,0 175,2 175,15 0,13 -26,15 -175,15 -149,0 -175,-2 -175,-15 z"
       id="path10"
       inkscape:connector-curvature="0" />
    <path
       d="m 181,407 c -6,-8 -8,-17 -4,-20 8,-9 338,-9 346,0 4,3 2,12 -4,20 -16,19 -322,19 -338,0 z"
       id="path12"
       inkscape:connector-curvature="0" />
    <path
       d="m 190,310 c -13,-9 -12,-12 5,-25 16,-13 48,-15 170,-13 147,3 150,3 153,26 l 3,22 -158,0 c -89,0 -165,-5 -173,-10 z"
       id="path14"
       inkscape:connector-curvature="0" />
  </g>
</svg>
