<svg xmlns="http://www.w3.org/2000/svg" viewBox="0 0 48 48"><title>Logo blue</title><g id="Layer_2" data-name="Layer 2"><g id="Layer_2-2" data-name="Layer 2"><rect id="_Path_" data-name="&lt;Path&gt;" width="48" height="48" fill="#1c81f7"/><path d="M33.411,16.217l-6.173-3.568a4.885,4.885,0,0,0-4.866,0L16.2,16.217a4.873,4.873,0,0,0-2.429,4.213v7.136A4.873,4.873,0,0,0,16.2,31.778l6.173,3.568a4.84,4.84,0,0,0,4.857,0L33.4,31.778a4.873,4.873,0,0,0,2.429-4.213V20.43A4.846,4.846,0,0,0,33.411,16.217Zm-1.325,2.3a2.229,2.229,0,0,1,1.1,1.916v2.243H26.125v-7.6ZM17.514,29.482a2.229,2.229,0,0,1-1.1-1.916V20.43a2.229,2.229,0,0,1,1.1-1.916l5.961-3.436v17.84Zm14.572,0-5.961,3.436v-7.6H33.19v2.243A2.229,2.229,0,0,1,32.086,29.482Z" fill="#fff"/></g></g></svg>