<svg xmlns="http://www.w3.org/2000/svg" viewBox="0 0 14 16"><title>Profile</title><g id="Layer_2" data-name="Layer 2"><g id="Layer_2-2" data-name="Layer 2"><path d="M9.39,9.4a6.73,6.73,0,0,1,3.37,2.56,7.114,7.114,0,0,1,.92,1.9A7.246,7.246,0,0,1,14,16H13a6.047,6.047,0,0,0-.46-2.38,5.743,5.743,0,0,0-3.16-3.16A6.047,6.047,0,0,0,7,10a6.129,6.129,0,0,0-1.61.21,5.757,5.757,0,0,0-1.44.6,5.882,5.882,0,0,0-2.14,2.14,5.917,5.917,0,0,0-.6,1.44A6.074,6.074,0,0,0,1,16H0a6.957,6.957,0,0,1,.33-2.15,7.23,7.23,0,0,1,.93-1.89,7,7,0,0,1,1.46-1.52A7.2,7.2,0,0,1,4.63,9.4a4.577,4.577,0,0,1-1.09-.8,4.82,4.82,0,0,1-.82-1.04A5.169,5.169,0,0,1,2.2,6.33,4.2,4.2,0,0,1,2,5a4.921,4.921,0,0,1,.39-1.95A4.995,4.995,0,0,1,5.05.39a5.07,5.07,0,0,1,3.9,0,4.995,4.995,0,0,1,2.66,2.66A4.921,4.921,0,0,1,12,5a5.034,5.034,0,0,1-.18,1.34,5.274,5.274,0,0,1-.52,1.22,5.149,5.149,0,0,1-.82,1.04A5.368,5.368,0,0,1,9.39,9.4ZM3,5a3.839,3.839,0,0,0,.32,1.55A4.057,4.057,0,0,0,5.45,8.68a3.914,3.914,0,0,0,3.1,0,4.057,4.057,0,0,0,2.13-2.13,3.914,3.914,0,0,0,0-3.1A4.057,4.057,0,0,0,8.55,1.32a3.914,3.914,0,0,0-3.1,0A4.057,4.057,0,0,0,3.32,3.45,3.839,3.839,0,0,0,3,5Z" fill="#fff"/></g></g></svg>