<svg xmlns="http://www.w3.org/2000/svg" viewBox="0 0 8.672 15.258"><title>Question</title><g id="Layer_2" data-name="Layer 2"><g id="Layer_2-2" data-name="Layer 2"><path d="M8.5,3.18a4.71,4.71,0,0,1,.172,1.148,4.183,4.183,0,0,1-.043.609,3.173,3.173,0,0,1-.129.547,4.941,4.941,0,0,1-.2.5,3.852,3.852,0,0,1-.242.449q-.133.2-.285.4T7.453,7.2q-.171.171-.336.34t-.328.316q-.164.157-.328.309t-.32.309a3.853,3.853,0,0,0-.281.3c-.089.1-.172.211-.25.32a2.463,2.463,0,0,0-.359.672,2.2,2.2,0,0,0-.1.367,2.378,2.378,0,0,0-.035.422v.906H3.57v-.906a4.183,4.183,0,0,1,.043-.609A3.832,3.832,0,0,1,3.734,9.4a4.913,4.913,0,0,1,.445-.945,4.961,4.961,0,0,1,.285-.406,4.031,4.031,0,0,1,.324-.367q.164-.164.328-.332c.109-.112.222-.22.336-.324s.218-.2.324-.3.215-.208.324-.312c.094-.094.187-.192.277-.3a3.218,3.218,0,0,0,.246-.32,2.752,2.752,0,0,0,.2-.32,2.34,2.34,0,0,0,.156-.352,1.632,1.632,0,0,0,.1-.371,2.74,2.74,0,0,0,.031-.418,2.829,2.829,0,0,0-.055-.559A2.531,2.531,0,0,0,6.9,3.25a2.885,2.885,0,0,0-.6-.883,2.665,2.665,0,0,0-.41-.336,3.105,3.105,0,0,0-.473-.258,2.65,2.65,0,0,0-1.086-.219,2.6,2.6,0,0,0-1.078.219,3.105,3.105,0,0,0-.473.258,2.665,2.665,0,0,0-.41.336,3.009,3.009,0,0,0-.34.406,2.633,2.633,0,0,0-.262.477,2.442,2.442,0,0,0-.152.492,3.148,3.148,0,0,0-.059.531v.188H0V4.273a5.469,5.469,0,0,1,.043-.555A3.5,3.5,0,0,1,.156,3.18a3.694,3.694,0,0,1,.18-.531,4.5,4.5,0,0,1,.25-.5A5.183,5.183,0,0,1,.9,1.688a4.3,4.3,0,0,1,.363-.414A4.714,4.714,0,0,1,1.688.9,4.4,4.4,0,0,1,2.141.586a4.319,4.319,0,0,1,.5-.25A4.693,4.693,0,0,1,3.18.148,4.362,4.362,0,0,1,4.324,0,4.454,4.454,0,0,1,5.477.148a4.443,4.443,0,0,1,.531.188,4.5,4.5,0,0,1,.5.25A4.02,4.02,0,0,1,6.969.9c.146.114.286.237.422.367s.253.276.367.422a4.02,4.02,0,0,1,.313.461,4.583,4.583,0,0,1,.242.5A4.693,4.693,0,0,1,8.5,3.18ZM5.246,13.043a1.3,1.3,0,0,0-1.836,0,1.3,1.3,0,0,0,.918,2.215,1.3,1.3,0,0,0,.918-2.215Z" fill="#fff"/></g></g></svg>