<svg xmlns="http://www.w3.org/2000/svg" viewBox="0 0 15.883 15.875"><title>Search</title><g id="Layer_2" data-name="Layer 2"><g id="Layer_2-2" data-name="Layer 2"><path d="M10.375,0A5.348,5.348,0,0,1,12.52.434a5.533,5.533,0,0,1,2.93,2.926A5.322,5.322,0,0,1,15.883,5.5a5.322,5.322,0,0,1-.434,2.141,5.544,5.544,0,0,1-2.926,2.926,5.483,5.483,0,0,1-3.082.352,5.826,5.826,0,0,1-.883-.23,5.231,5.231,0,0,1-.82-.367,5.727,5.727,0,0,1-.746-.492L1.133,15.68a.483.483,0,0,1-.1.09.6.6,0,0,1-.117.059.793.793,0,0,1-.121.035.658.658,0,0,1-.129.012.723.723,0,0,1-.133-.012.487.487,0,0,1-.125-.043A.568.568,0,0,1,.3,15.758a.859.859,0,0,1-.1-.086.49.49,0,0,1-.148-.211.793.793,0,0,1-.035-.121A.658.658,0,0,1,0,15.211a1.074,1.074,0,0,1,.008-.125.386.386,0,0,1,.039-.125.6.6,0,0,1,.059-.117.483.483,0,0,1,.09-.1L6.047,8.883a5.819,5.819,0,0,1-.492-.742,5.111,5.111,0,0,1-.367-.816,5.786,5.786,0,0,1-.23-.887,5.47,5.47,0,0,1,.352-3.078A5.544,5.544,0,0,1,8.234.434,5.322,5.322,0,0,1,10.375,0Zm1.656,9.414a4.274,4.274,0,0,0,2.258-2.258,4.251,4.251,0,0,0,0-3.312,4.274,4.274,0,0,0-2.258-2.258,4.251,4.251,0,0,0-3.312,0A4.274,4.274,0,0,0,6.461,3.844a4.251,4.251,0,0,0,0,3.313A4.274,4.274,0,0,0,8.719,9.414a4.251,4.251,0,0,0,3.313,0Z" fill="#fff"/></g></g></svg>