<svg xmlns="http://www.w3.org/2000/svg" viewBox="0 0 15.211 15.219"><title>Settings</title><g id="Layer_2" data-name="Layer 2"><g id="Layer_2-2" data-name="Layer 2"><path d="M13.266,7.727l1.945,1.219-.008.039-1.281,3.07L11.7,11.531l-.172.172.523,2.227L8.93,15.211l-1.2-1.945H7.484L6.273,15.219l-3.109-1.3.008-.039.516-2.18-.172-.172-2.227.523-.016-.039L.008,8.938l.039-.031,1.906-1.18V7.492L0,6.281,1.3,3.172,3.523,3.7l.172-.18L3.172,1.289,6.281.008,7.492,1.953h.242L8.945,0l3.109,1.3-.008.039-.516,2.188L11.7,3.7l2.227-.523.016.039,1.266,3.078-1.945,1.2Zm-2.93,3.609,1.023-1.023,1.906.453.57-1.383L12.164,8.336V6.883l1.672-1.031-.57-1.4-1.914.453L10.313,3.867l.008-.023.445-1.891-1.383-.57L8.336,3.055H6.883L5.852,1.383l-1.4.57.453,1.914L3.867,4.906,1.953,4.453,1.375,5.836,3.063,6.867V8.336L1.383,9.367l.57,1.391,1.914-.445,1.039,1.039-.453,1.906,1.4.578,1.039-1.672H8.352l1.031,1.672,1.391-.57-.461-1.914ZM9.105,6.977a1.628,1.628,0,0,0-.863-.863,1.618,1.618,0,0,0-1.266,0,1.628,1.628,0,0,0-.863.863,1.618,1.618,0,0,0,0,1.266,1.628,1.628,0,0,0,.863.863,1.618,1.618,0,0,0,1.266,0,1.628,1.628,0,0,0,.863-.863,1.618,1.618,0,0,0,0-1.266Z" fill="#fff"/></g></g></svg>