<svg xmlns="http://www.w3.org/2000/svg" viewBox="0 0 15.75 15.75"><title>Smile</title><g id="Layer_2" data-name="Layer 2"><g id="Layer_2-2" data-name="Layer 2"><path d="M10.941.617a7.9,7.9,0,0,1,4.191,4.191,7.677,7.677,0,0,1,.617,3.066,7.677,7.677,0,0,1-.617,3.066,7.9,7.9,0,0,1-4.191,4.191,7.677,7.677,0,0,1-3.066.617,7.677,7.677,0,0,1-3.066-.617A7.9,7.9,0,0,1,.617,10.941,7.677,7.677,0,0,1,0,7.875,7.677,7.677,0,0,1,.617,4.809,7.9,7.9,0,0,1,4.809.617,7.677,7.677,0,0,1,7.875,0,7.677,7.677,0,0,1,10.941.617ZM7.875,14.578a6.509,6.509,0,0,0,2.605-.527,6.728,6.728,0,0,0,3.57-3.57,6.7,6.7,0,0,0,0-5.211A6.728,6.728,0,0,0,10.48,1.7a6.7,6.7,0,0,0-5.211,0A6.728,6.728,0,0,0,1.7,5.27a6.7,6.7,0,0,0,0,5.211,6.728,6.728,0,0,0,3.57,3.57A6.509,6.509,0,0,0,7.875,14.578Zm-1.9-2.352c.1.042.2.081.3.117s.2.07.309.1.216.058.32.078.211.039.32.055.211.027.32.035.219.012.328.012.229,0,.344-.016l.336-.031c.109-.016.219-.036.328-.062l.32-.078c.1-.036.208-.074.313-.113s.206-.082.3-.129.2-.1.293-.148.191-.106.285-.164.185-.118.273-.184.175-.134.258-.207.165-.141.246-.219.16-.159.238-.242a2.881,2.881,0,0,0,.223-.25c.07-.089.14-.18.207-.273s.122-.183.18-.281.112-.2.164-.3l-.945-.344c-.036.073-.077.147-.121.223s-.093.149-.145.223-.1.136-.152.2a2.538,2.538,0,0,1-.176.2c-.058.063-.117.124-.18.184a2.431,2.431,0,0,1-.2.168,2.171,2.171,0,0,1-.207.156c-.07.047-.142.094-.215.141s-.155.09-.23.129-.149.074-.223.105-.159.062-.242.09-.167.056-.25.082-.167.048-.25.066-.167.035-.25.051-.169.019-.258.023-.177.008-.266.008-.176,0-.262-.008-.171-.013-.254-.023-.175-.032-.258-.051-.167-.038-.25-.059a1.844,1.844,0,0,1-.242-.078l-.234-.094c-.078-.036-.155-.074-.23-.113S6,11.12,5.93,11.078s-.145-.087-.215-.137-.14-.1-.207-.16-.133-.106-.2-.164a2.188,2.188,0,0,1-.18-.187c-.062-.062-.121-.126-.176-.191s-.108-.134-.16-.207l-.141-.223c-.047-.075-.091-.152-.133-.23l-.9.445c.052.1.106.2.164.3s.117.192.18.281.128.176.2.262a2.117,2.117,0,0,0,.219.238c.078.083.156.163.234.238a2.8,2.8,0,0,0,.25.215c.083.067.169.133.258.2a2.976,2.976,0,0,0,.273.172c.094.058.188.112.285.164S5.878,12.185,5.977,12.227ZM5.8,5.492a1.1,1.1,0,0,0-.543-.543,1.024,1.024,0,0,0-.766,0,1.1,1.1,0,0,0-.543.543,1.024,1.024,0,0,0,0,.766,1.1,1.1,0,0,0,.543.543,1.024,1.024,0,0,0,.766,0A1.1,1.1,0,0,0,5.8,6.258a1.024,1.024,0,0,0,0-.766Zm6,0a1.1,1.1,0,0,0-.543-.543,1.024,1.024,0,0,0-.766,0,1.1,1.1,0,0,0-.543.543,1.024,1.024,0,0,0,0,.766,1.1,1.1,0,0,0,.543.543,1.024,1.024,0,0,0,.766,0,1.1,1.1,0,0,0,.543-.543,1.024,1.024,0,0,0,0-.766Z" fill="#fff"/></g></g></svg>